<?xml version="1.0" encoding="UTF-8" standalone="no"?>
<!DOCTYPE svg PUBLIC "-//W3C//DTD SVG 1.1//EN" "http://www.w3.org/Graphics/SVG/1.1/DTD/svg11.dtd">
<svg width="100%" height="100%" viewBox="0 0 372 425" version="1.1" xmlns="http://www.w3.org/2000/svg" xmlns:xlink="http://www.w3.org/1999/xlink" xml:space="preserve" xmlns:serif="http://www.serif.com/" style="fill-rule:evenodd;clip-rule:evenodd;stroke-linejoin:round;stroke-miterlimit:2;">
    <g transform="matrix(1,0,0,1,-1996.356677,-119.189092)">
        <g transform="matrix(-0.752116,0,-0,-0.733225,3083.410179,481.58138)">
            <path d="M1265.391,204.712L1445.326,494.244L1085.456,494.244L1265.391,204.712Z" style="fill:rgb(81,82,92);fill-opacity:0.7;"/>
        </g>
        <g transform="matrix(-0.752116,0,-0,-0.733225,3183.912161,481.58138)">
            <path d="M1265.391,204.712L1445.326,494.244L1085.456,494.244L1265.391,204.712Z" style="fill:rgb(81,88,92);fill-opacity:0.7;"/>
        </g>
        <g transform="matrix(-0.752116,0,0,0.733225,3083.410179,181.38109)">
            <path d="M1265.391,204.712L1445.326,494.244L1085.456,494.244L1265.391,204.712Z" style="fill:rgb(81,82,92);fill-opacity:0.7;"/>
        </g>
        <g transform="matrix(-0.752116,0,0,0.733225,3183.912161,181.38109)">
            <path d="M1265.391,204.712L1445.326,494.244L1085.456,494.244L1265.391,204.712Z" style="fill:rgb(81,88,92);fill-opacity:0.7;"/>
        </g>
    </g>
</svg>
