<?xml version="1.0" encoding="UTF-8" standalone="no"?><!DOCTYPE svg PUBLIC "-//W3C//DTD SVG 1.1//EN" "http://www.w3.org/Graphics/SVG/1.1/DTD/svg11.dtd"><svg width="100%" height="100%" viewBox="0 0 1239 1239" version="1.1" xmlns="http://www.w3.org/2000/svg" xmlns:xlink="http://www.w3.org/1999/xlink" xml:space="preserve" xmlns:serif="http://www.serif.com/" style="fill-rule:evenodd;clip-rule:evenodd;"><clipPath id="_clip1"><rect x="0" y="0" width="1238.618" height="1238.618"/></clipPath><g clip-path="url(#_clip1)"><path d="M817.488,173.406l-222.951,198.179l0,111.476l24.772,12.386l24.772,-86.703l173.406,-148.634l0,-86.703Zm346.813,161.02l-235.337,198.179l0,99.089l86.703,37.159l-235.337,222.951l0,322.041l272.496,-297.268l-24.772,-136.248l173.406,-173.406l-37.159,-272.496Zm-507.833,173.406l-247.724,210.565l0,247.724l74.317,-210.565l173.406,-148.634l0,-99.089Z" style="fill:#316175;fill-rule:nonzero;"/><path d="M594.537,371.585l-272.496,-123.862l247.724,-190.747l247.724,116.43m111.476,359.199l-284.882,-123.862l235.337,-198.179l284.882,123.862m-383.972,557.378l-297.268,-136.248l247.724,-210.565l284.882,123.862m-606.923,49.545l-272.496,-123.862l235.337,-210.565l284.882,123.862" style="fill:#dbaf53;fill-rule:nonzero;"/><path d="M619.309,495.447l24.772,-86.703l284.882,123.862l0,99.089l-198.179,-86.703l-74.317,61.931l0,-99.089l-37.159,-12.386Zm-396.358,12.386l99.089,-260.11l272.496,123.862l0,111.476l-222.951,-99.089l-148.634,123.862Zm-183.315,322.041l96.612,-235.337l272.496,123.862l0,247.724l74.317,-210.565l297.268,136.248l0,322.041l-740.693,-383.972Z" style="fill:#53b2db;fill-rule:nonzero;"/><path d="M136.248,594.537l235.337,-210.565l284.882,123.862l-247.724,210.565l-272.496,-123.862Z" style="fill:#4b508f;fill-rule:nonzero;"/><path d="M222.951,507.833l99.089,-260.11l247.724,-190.747l247.724,116.43l0,86.703m-421.13,755.557l86.703,-260.11l247.724,-210.565l284.882,123.862l37.159,247.724l-272.496,297.268l-740.693,-383.972l96.612,-235.337l235.337,-210.565l284.882,123.862l0,99.089m-37.159,-111.476l24.772,-86.703l235.337,-198.179l284.882,123.862l37.159,272.496l-173.406,173.406" style="fill:none;fill-rule:nonzero;stroke:#222;stroke-width:12.39px;"/><g><g><path d="M694.964,33.97l-216.365,0l-20.854,65.17l11.917,4.841c18.74,-32.483 44.093,-55.86 82.301,-55.86c11.193,0 16.386,2.771 16.386,14.896l0,170.932c-0.264,21.903 -0.258,38.626 -24.578,40.964l-14.151,1.117l0,11.544l114.699,0l0,-11.544l-14.524,-1.117c-24.21,-2.793 -24.206,-18.588 -24.206,-40.964l0,-169.442c0,-11.938 2.029,-16.386 14.896,-16.386c36.896,0 64.494,24.478 81.928,55.86l13.406,-4.841l-20.854,-65.17Z" style="fill:#51525c;fill-rule:nonzero;"/></g></g><g><path d="M968.108,343.339c17.091,-2.481 28.65,-5.147 41.952,-16.03c13.779,-11.023 21.147,-27.125 21.147,-44.681c0,-43.105 -42.344,-58.665 -78.788,-58.665l-138.817,0l0,10.573l8.527,1.023c22.665,2.615 21.935,17.825 22.17,37.518l0,134.042c-0.234,19.693 0.495,34.903 -22.17,37.518l-8.527,1.023l0,10.573l99.253,0l0,-10.573l-12.279,-1.023c-22.665,-2.615 -21.935,-17.825 -22.17,-37.518l0,-60.37l49.115,0l76.742,109.485l56.959,0l0,-10.573c-16.828,-3.091 -25.992,-8.618 -36.495,-22.17l-56.618,-80.152Zm-89.702,-11.255l0,-74.013l8.868,-14.666l41.611,-5.457c30.373,0 65.486,9.271 65.486,46.045c0,14.466 -6.081,28.325 -17.395,37.518c-11.99,9.096 -26.808,10.573 -41.27,10.573l-57.3,0Z" style="fill:#51525c;fill-rule:nonzero;"/></g><g><path d="M766.216,717.858l41.166,-63.121c11.186,-17.21 16.559,-23.72 36.426,-27.693l0,-7.734l-62.123,0l0,7.734c4.82,0.789 18.213,1.96 18.213,10.978l-3.992,10.728l-35.428,54.389l-35.178,-56.884l-3.742,-8.982c0,-9.161 16.161,-9.764 19.71,-10.229l0,-7.734l-71.105,0l0,7.734c16.46,3.821 20.535,10.377 29.44,24.949l41.665,66.365l0,34.929c-0.168,13.933 0.36,25.85 -16.217,27.444l-10.229,0.748l0,7.734l77.841,0l0,-7.734l-10.229,-0.748c-16.576,-1.594 -16.049,-13.511 -16.217,-27.444l0,-35.428Z" style="fill:#51525c;fill-rule:nonzero;"/></g></g><g><g><path d="M360.233,539.541c6.576,-44.177 12.919,-87.93 19.026,-131.178c57.464,25.923 114.929,51.846 172.393,77.769c-63.806,17.803 -127.612,35.606 -191.419,53.41Z" style="fill:#fff;fill-opacity:0.7;"/><path d="M423.385,569.294c6.647,-44.562 13.058,-88.706 19.231,-132.351c58.163,26.238 116.327,52.476 174.49,78.715c-64.574,17.879 -129.147,35.758 -193.721,53.636Z" style="fill:#fff;fill-opacity:0.7;"/><path d="M424.561,565.526c-5.587,44.331 -11.411,89.138 -17.467,134.339c-56.619,-26.882 -113.239,-53.763 -169.858,-80.645c62.442,-17.898 124.883,-35.796 187.325,-53.694Z" style="fill:#fff;fill-opacity:0.7;"/><path d="M360.659,536.468c-5.531,43.944 -11.293,88.355 -17.282,133.15c-55.937,-26.563 -111.875,-53.127 -167.812,-79.69c61.698,-17.82 123.396,-35.64 185.094,-53.46Z" style="fill:#fff;fill-opacity:0.7;"/></g></g></svg>